                <svg
                    width="24"
                    height="24"
                    viewBox="0 0 512 512"
                    xmlns="http://www.w3.org/2000/svg"
                >
                    <path
                        d="M401.9 5.7c-4.9.8-13.3 6.7-18.2 12.8-4.2 5.3-9.8 15.6-16.6 30.7-1.1 2.6-5.1 9.8-8.7 16s-8.6 15.2-11 20c-2.5 4.9-5.4 9.2-6.6 9.9-1.7.9-11.7 1.3-36.3 1.3-32.4.1-34.4.2-42 2.4-15.1 4.4-18 5-28.5 6.6-5.8.9-12.8 2.3-15.7 3-6.4 1.7-7.1 1.4-20.2-9.1-12.4-10-59.1-56.1-64.4-63.6q-6.3-9-10.2-5.7c-.8.7-1.5 2.5-1.5 4.1 0 4.1 8 25.6 15.5 41.9 11 23.8 13.2 34.7 9.7 48.2-1.4 5.6-2.9 8.8-5.6 11.9-1.9 2.3-4.1 5.8-4.7 7.8-.7 1.9-3.7 7.4-6.7 12.2l-5.6 8.7h-17.5c-19 0-32.8 1.6-49.1 5.7-16.1 4.1-36.2 11.5-50.1 18.6L2 192v14.3c0 14.2 0 14.3 2.9 17.7 5.4 6.6 6.9 11.2 12.1 36.5 6.4 31.5 11.2 44.1 20.1 54 8 8.7 22.4 14.8 40.2 17l4.7.6v6c0 4.2-.8 7.8-2.6 12.2-2.2 5-2.8 8.3-3.2 16.9-.4 9.7-.6 10.9-2.6 12.2-1.3.8-6.1 4.7-10.8 8.8-4.6 4-14 11.6-20.8 16.8-14.8 11.3-28.5 24.6-36.4 35.1-8.1 10.9-7 13 1.3 2.3 8.9-11.5 22.4-24.5 38.6-37 19.1-14.8 31.9-26.1 32.7-28.7.3-1.2.6-5.9.7-10.3.1-6.2.7-9.8 2.7-15q2.55-6.9 2.7-13.2l.1-6.2h9.7c5.3 0 13.5-.7 18.2-1.5 8.7-1.5 25.2-6.9 26.3-8.6 1.6-2.7 2.2.1 1.7 8.3-.9 14.9 3.2 27.1 12.4 36.9 4.2 4.5 12.8 9.8 13.9 8.6.3-.3-1.4-1.4-3.8-2.5-2.4-1-6.6-4.3-9.4-7.3-9.2-9.8-13.2-22.3-12.1-37.2.6-7.5.9-8.4 3.4-10.2 5-3.5 15.4-13.9 19.1-19 2-2.8 5.7-7.3 8.3-10.2 5.8-6.5 12.6-19.6 17.4-33.7 2.9-8.6 3.9-13.1 4.4-21.6.8-12.1 2.5-16.1 8.1-19.5 2.6-1.5 5.2-2 10-1.9 11.6 0 17.4 4.7 20.6 16.3 3.1 11.4 8.5 27.4 12.4 36.3l4 9.2-2.6 6.4c-1.4 3.5-2.3 6.6-2.1 6.8.2.3 1.4-2.3 2.6-5.6s2.4-6 2.6-6c.3 0 1.4 1.9 2.6 4.2 6.5 12.8 19.7 27.9 31.1 35.4 13.5 9 31.7 15.5 53.4 19 15.3 2.4 47.3 2.5 60.4 0 23.7-4.4 41.9-14.9 51.3-29.7 4.8-7.5 6.9-13.9 12.7-37.2 7.1-29 6.9-28.2 8.6-26.5.8.8 1.9 4 2.4 7.3.6 3.4 1.8 6.7 3 8 1.7 1.8 2 3.5 2 11.6 0 7.9.4 10.2 2.5 14.7 1.5 3.3 2.5 7.3 2.5 10 .1 2.6.7 5.8 1.5 7.2 2 3.4 1.8 7.3-.5 15.5s-2.6 16.2-.6 20.9c.8 1.9 3.5 5.4 6 7.7 2.9 2.8 4.6 5.2 4.6 6.7 0 2.8 1.3 5.4 5 10.2 1.5 1.9 3.1 4.5 3.4 5.8 1.2 3.8 10.6 16.8 10.6 14.6 0-1-1.4-3.9-3.1-6.4-1.6-2.5-4-6.8-5.3-9.5-1.3-2.8-3.1-5.6-4-6.4-2.4-2-4.6-6.5-4.6-9.5 0-1.7-1.6-4-5-7.2-2.7-2.6-5.4-6.2-6.1-8.1-1.4-4.3-.7-11.4 2-21.1 1.9-6.9 1.9-7.6.5-11.5-.9-2.3-2-6.9-2.4-10.2s-1.7-8.1-2.8-10.7c-1.9-3.8-2.2-6.1-2-13.6.3-8.1.1-9.3-1.9-11.4-1.2-1.3-2.5-4.3-2.9-6.8-.3-2.5-1.6-6.3-2.9-8.5l-2.2-4 3.1-7.8 3.2-7.7 8.9-5.1c5-2.7 10.5-6.4 12.3-8.2 3.2-3.3 3.3-3.6 4.3-15.8 1.3-16 .6-19.5-4.6-23.1-4.8-3.3-21.9-7.8-41.9-11.1-12-1.9-14.1-2.5-15.4-4.5-2.7-4.1-2.1-31.6 1.1-51.2 6.1-36.9 5.3-60.2-2.8-75.9-6.5-12.7-23.6-22.5-35.6-20.4m16.2 5c7.9 4 16.1 12.5 18.8 19.8 6.2 16.2 6.5 39.4 1.2 73-3.1 19.5-3.8 34-2.2 45.5.5 3 .8 5.6.7 5.7s-10-.9-22.1-2.2c-60.6-6.7-95.2-3.7-148.5 13-19.1 6-25.5 7.2-44.2 8.5-19.6 1.5-39.4.2-63.6-4-9.5-1.6-20.4-3.3-24.3-3.6-3.8-.4-6.8-1-6.7-1.3.2-.3 2.9-4.5 6-9.3 3.2-4.7 5.8-9.3 5.8-10.2 0-1.7 2.7-6.1 6.3-10.2 1-1.2 2.7-5.4 3.9-9.5 1.7-6 1.9-9 1.5-15.9-.8-10.7-2.7-16.6-11.5-36-5.9-12.9-13.4-31.3-13.1-32.3.1-.1-.5-1.4-1.1-2.9-1.4-3-.5-8.1 1.3-7.5.7.2 3.8 3.7 7 7.9 3.1 4.1 16 17.4 28.5 29.5 33.7 32.8 45.8 42.7 51.6 42.7 3.2 0 21-3.3 32.6-6.1 3.6-.8 8.1-1.9 10-2.3s6.4-1.6 10-2.6c5.6-1.5 11-1.8 40-1.8 26.7-.1 34.1-.4 36.2-1.5 2-1 4.3-4.4 7.9-11.5 2.9-5.6 7.4-13.9 10.2-18.6 2.7-4.7 8.2-15.3 12.2-23.6 7.9-16.4 11.8-22.8 17.3-28 8.4-7.9 18.4-9.6 28.3-4.7M387.5 152c18.5 1.4 46.9 4.6 63 7.1 15.6 2.4 37.7 7.6 39.7 9.2 1.2 1 1.3 4 .8 16.4l-.5 15.3-6.7 6.2c-5.3 4.9-7.5 7.9-10.1 13.9-4.9 10.7-10.2 27.5-15.3 48.7-6.8 27.9-9.7 34.4-20.1 44.4-16 15.4-44.3 23.1-79.1 21.4q-60.3-3-88.8-32.7c-13.8-14.6-25.3-37.2-33.8-67-1.9-6.3-4.1-13-5-14.7-4.9-9.5-22.3-13.3-31.8-6.9-4.3 2.9-5.9 6.4-10.8 23.1-10.9 37.2-21.7 58.5-37 72.9-8.2 7.8-14.8 11.7-26.5 15.6-12.1 4-24.2 5.5-40 4.8-28.7-1.2-45.4-9.9-54.5-28.3-4.2-8.6-7.3-19.3-12.1-42.3-4.7-22.4-7.3-30.3-11.7-35.9-3-3.7-3.2-4.6-3.2-11.5v-7.6l2.8 1.5c3.2 1.7 4.5 1.7 9.4.3 4.6-1.2 5.3-4.5 1.3-5.5-2.8-.7-9.1-.1-11.7 1-1.6.7-1.8.2-1.8-3.7v-4.5l12.3-5.5c35.3-15.9 60.9-21.3 96.2-20.4 19.7.5 24.6 1.1 61 7.4 12.6 2.2 51.3 2.2 65 0 5.5-.9 17.4-3.9 26.4-6.7 23.7-7.3 32.9-9.6 48.6-12.5 24-4.3 47.7-5.4 74-3.5m110.2 20.2c1.8 2.1 2.1 8.2 1.2 20.1l-.8 11.2-4 3.5c-4.8 4.4-16.1 10.6-16.1 8.9 0-.6 3.3-4.3 7.3-8.1l7.2-7 .4-15.9c.3-14.7.4-15.8 2-14.9 1 .5 2.2 1.5 2.8 2.2M18 202c1.9 1.2 1 2-3.2 2.9-4.6.9-8.8.2-8.8-1.4 0-2.2 9-3.4 12-1.5m174.6 35.7c-2.5 13.8-9.3 32-16.1 43.4-2 3.2-3.8 5.9-4 5.9-.1 0 1.9-4.8 4.6-10.8 2.6-5.9 7.1-17.8 10-26.5 2.9-8.6 5.4-15.7 5.7-15.7.2 0 .1 1.7-.2 3.7"
                        fill="none"
                        stroke="#000000"
                        stroke-width="10"
                    />
                    <path
                        d="M398.4 14.9C390 21.1 384 30 372.2 53.5c-7.7 15.7-19.7 43.3-19 44 .2.2 3.2-6.5 6.7-14.8 11.5-27.3 25.8-54 33.5-62.6 1.1-1.3 4.1-3.7 6.5-5.2 2.5-1.6 4-2.9 3.4-2.9-.5 0-2.8 1.3-4.9 2.9M143.3 59.8c9.2 10 17.3 18.5 18 18.9s-2.6-3.5-7.3-8.7c-14.9-16.5-24.4-26.5-26-27.4-.8-.6 6.1 7.2 15.3 17.2M340 159.6c-1.9.2-7.8.9-13 1.5-28.3 3.2-55.9 13-67.6 24-7.6 7.2-9.7 12.8-10.2 26.4-1.1 32.2 17.9 76.7 40.6 95 11.7 9.4 30.1 16.5 51.3 19.6 12 1.8 40.3 1.5 51.7-.5 19.6-3.5 33.6-9.7 41.4-18.4 11.6-12.8 19.5-44.3 20.5-81.2.6-20.5-.2-26.9-4.3-36.1-6.6-14.6-24.4-23.1-59.9-28.4-9.7-1.5-43.4-2.7-50.5-1.9m36.1 2.5c29.9 2.3 54.5 9.5 65.4 19.1 8.4 7.4 11.5 17.9 11.5 38.8 0 30.8-7.7 68-17 81.4-9.6 14-26.9 21.1-57.8 23.6-34.9 2.9-68.3-5.1-87.8-20.9-21.4-17.3-40.4-62.2-39.2-92.6.8-20.9 10-30.3 38.8-39.9 26.3-8.8 55.1-12 86.1-9.5m-283 12c-26.4 1.9-49.7 10.2-60 21.5-7 7.7-8.3 11.9-8.8 30.4-.6 17.3 1.1 32.7 5.2 49 7.6 29.8 16.2 40.1 38.3 46.2 6.5 1.8 10.6 2.2 25.7 2.2 15.9 0 19-.2 26.2-2.3 18.7-5.3 30.9-16.8 41.9-39.6 10.7-22.1 16.9-46 16.9-65.1 0-11.9-.1-12.2-3.5-19-2.8-5.6-4.6-7.6-8.9-10.5-9.3-6.2-29.5-11.6-46.6-12.5-4.9-.3-10.6-.6-12.5-.7-1.9-.2-8.2 0-13.9.4m34.5 3c11.1 1.5 26 5.5 32.3 8.5 12.4 6.1 16.6 14.1 16.5 31.4-.1 29.2-17.3 73.6-35 90.2-5.1 4.7-14.2 9.5-22.7 11.9-11.1 3.2-37 3.4-48.7.5-9.7-2.4-20.3-7.9-24.4-12.7-6.8-8-13.3-25.5-16.9-45.4-2.9-16.4-3.1-46.3-.4-54.2 5.1-14.5 24.9-25.6 53.2-29.8 11.2-1.6 35.8-1.9 46.1-.4m336.2 2.6c-7.1 2.9-3.9 6.1 7 7 7.9.6 14.6-1.4 14-4.4-.7-3.9-14-5.6-21-2.6m16.1.6c1.9.7 3.6 1.7 3.8 2.4.5 1.4-5.6 3.3-10.5 3.3-4.3 0-12.2-2-12.2-3.1 0-3.1 12.5-4.8 18.9-2.6M178.1 285.9c-9.8 22.8-10.5 31.3-2.8 33.6 4.7 1.5 6.7 4.5 6.7 10.2 0 5.1.3 5.6 4.5 9.8 2.5 2.4 5.4 4.6 6.3 4.9 1.4.5 2.1 2.5 3 8.8 1.4 9.5 1.3 9.6-6.5 14-2.9 1.6-5.3 3.2-5.3 3.5 0 .9 11.5-5.9 12.3-7.4.7-1.1 1.8-.5 5.2 2.5 5.2 4.6 22.1 13.1 32 16.2 14.8 4.6 31.4 3.5 44.7-3 17.7-8.6 29.1-23.1 28.7-36.4-.1-3.3-.3-2.9-1 2.2-1.3 10.6-7.1 19.4-17.4 26.7-16.6 11.8-32.8 15.1-51.1 10.5-9.3-2.3-30.3-12.4-35.7-17.2-3.4-3-3.8-4-4.9-11.2l-1.2-7.8 3-2.1c8.5-6.2 10-9.6 6.3-14.6-1.8-2.4-1.9-3.2-.9-5.1 1.1-2.1 1.7-2.2 7.1-1.6 6.8.8 10.2-.4 16-5.7 1.9-1.7 2.7-2.6 1.7-1.8-1.7 1.3-2.2 1.1-5.1-1.6-4.7-4.5-9.3-6.5-16.1-6.9l-6.1-.3 6.2.9c7.1 1 10.7 2.7 14.6 6.8 3.2 3.3 2.8 4-3.7 6.7-3.1 1.3-4.3 1.4-7.2.3-3-1-4-1-6.2.3-3.5 1.9-4.2 6.7-1.2 9.4 1.1 1 2 2.6 2 3.6 0 2.1-8.6 9.9-11 9.9-1 0-4-2-6.6-4.3-4.6-4.2-4.8-4.6-4.9-10-.1-6.3-2.6-10.1-7.6-11.2-3.8-.8-5.1-2.7-4.7-6.7.2-2.7.9-3.5 3.8-4.6l3.5-1.3-3.7.5-3.7.5 2.1-5.7c1.2-3.1 3.4-8.8 4.9-12.6 3.3-8 3.3-10.2 0-2.7"
                        fill="none"
                        stroke="#000000"
                        stroke-width="10"
                    />
                    <path
                        d="M185.3 306.7c1.5.2 3.9.2 5.5 0 1.5-.2.2-.4-2.8-.4s-4.3.2-2.7.4m11 1c.9.2 2.5.2 3.5 0 .9-.3.1-.5-1.8-.5s-2.7.2-1.7.5m-4.1 23.3c0 1.4.2 1.9.5 1.2.2-.6.2-1.8 0-2.5-.3-.6-.5-.1-.5 1.3m1 4.5c0 1.1.3 2.9.8 4 1.1 2.5 1.1-.1 0-3.5-.6-2-.8-2.1-.8-.5m-23.6 53.4c5.1 8.8 19.5 17.9 33.9 21.6 5.5 1.4 9.3 1.6 17.5 1.2 9.9-.5 34.5-4.7 32.2-5.5-.5-.1-5.9.7-11.9 1.8-15.5 3.1-29.2 3.7-37.3 1.6-12.5-3.2-21.4-8.2-29.2-16.4-4.5-4.8-6.4-6.3-5.2-4.3m86.2 16.8c.7.3 1.6.2 1.9-.1.4-.3-.2-.6-1.3-.5-1.1 0-1.4.3-.6.6"
                        fill="none"
                        stroke="#000000"
                        stroke-width="10"
                    />
                </svg>