<?xml version="1.0" encoding="UTF-8"?>
<svg
    width="48"
    height="48"
    viewBox="0 0 25 25"
    xmlns="http://www.w3.org/2000/svg"
>
    <path
        d="M 2 23 L 4 19 L 4 18 L 3 16 L 1 14 L 1 13 L 1 12 L 3 9.1875 L 4 9 L 6 9 L 7 7.1875 L 6 2.1875 L 11 5.1875 L 15 5.1875 L 16 4.1875 L 20 1.1875 L 21 2.1875 L 21 2.1875 L 22 7.1875 L 24 8.1875 L 24 11.1875 L 23 13.1875 L 24 19.1875 L 24 21.1875 L 24 23 L 4 23 Z M 1 12 L 1 14 L 3 16 L 6 16.1875 L 8 15.1875 L 9 12.1875 L 12 12.1875 L 14 15.1875 L 16 16.1875 L 20 16.1875 L 22 14.1875 L 23 11.1875 L 24 11.1875 L 24 9.1875 L 20 8.1875 L 16 8.1875 L 13 9.1875 L 9 9 L 4 9 L 3 9.1875 L 2.1 10.173 Z"
        fill="none"
        stroke="#000000"
        stroke-width="1"
    />
</svg>
